<svg width="24" height="24" viewBox="0 0 24 24" fill="none" xmlns="http://www.w3.org/2000/svg">
<path d="M21.6633 7.93127C21.1374 6.67625 20.3724 5.53553 19.4109 4.57268C18.4523 3.60815 17.3136 2.84129 16.0594 2.31565C14.7746 1.77455 13.3941 1.49718 12 1.50002H11.9531C10.5352 1.50705 9.16406 1.7883 7.87266 2.34143C6.62923 2.87246 5.50118 3.64068 4.55156 4.60315C3.59937 5.56384 2.84314 6.70057 2.325 7.95002C1.78715 9.24931 1.51461 10.6431 1.52344 12.0492C1.53047 13.6758 1.91953 15.2906 2.6461 16.7344V20.2969C2.6461 20.8922 3.12891 21.375 3.72188 21.375H7.27969C8.73018 22.1069 10.3308 22.4921 11.9555 22.5H12.0047C13.4063 22.5 14.7633 22.2281 16.043 21.6961C17.2908 21.1767 18.4253 20.4188 19.3828 19.4649C20.3484 18.5063 21.1078 17.386 21.6398 16.1367C22.1906 14.843 22.4719 13.4672 22.4789 12.0469C22.4836 10.6196 22.207 9.2344 21.6633 7.93127ZM7.32188 13.125C6.70313 13.125 6.19922 12.6211 6.19922 12C6.19922 11.3789 6.70313 10.875 7.32188 10.875C7.94063 10.875 8.44453 11.3789 8.44453 12C8.44453 12.6211 7.94297 13.125 7.32188 13.125ZM12 13.125C11.3813 13.125 10.8773 12.6211 10.8773 12C10.8773 11.3789 11.3813 10.875 12 10.875C12.6188 10.875 13.1227 11.3789 13.1227 12C13.1227 12.6211 12.6188 13.125 12 13.125ZM16.6781 13.125C16.0594 13.125 15.5555 12.6211 15.5555 12C15.5555 11.3789 16.0594 10.875 16.6781 10.875C17.2969 10.875 17.8008 11.3789 17.8008 12C17.8008 12.6211 17.2969 13.125 16.6781 13.125Z" fill="#5C48E8"/>
</svg>
