<svg width="15" height="15" viewBox="0 0 15 15" fill="none" xmlns="http://www.w3.org/2000/svg">
<path d="M13.8935 4.45275C13.532 3.58992 13.0061 2.80568 12.345 2.14372C11.686 1.4806 10.9031 0.953389 10.0408 0.592007C9.15751 0.220002 8.20845 0.0293126 7.25 0.0312648H7.21777C6.24292 0.0360988 5.30029 0.229458 4.41245 0.609732C3.5576 0.974818 2.78206 1.50297 2.1292 2.16466C1.47457 2.82514 0.954659 3.60664 0.598439 4.46564C0.228664 5.3589 0.0412968 6.3171 0.047365 7.28385C0.0521989 8.40211 0.319679 9.51232 0.819191 10.5049V12.9541C0.819191 13.3634 1.15112 13.6953 1.55879 13.6953H4.00479C5.002 14.1985 6.10243 14.4633 7.21939 14.4688H7.25322C8.2168 14.4688 9.14976 14.2819 10.0295 13.9161C10.8874 13.559 11.6674 13.0379 12.3257 12.3821C12.9896 11.7231 13.5116 10.9528 13.8774 10.094C14.2561 9.20456 14.4494 8.25871 14.4542 7.28224C14.4575 6.30094 14.2673 5.34865 13.8935 4.45275ZM4.03379 8.02345C3.6084 8.02345 3.26196 7.67702 3.26196 7.25001C3.26196 6.82301 3.6084 6.47658 4.03379 6.47658C4.45918 6.47658 4.80562 6.82301 4.80562 7.25001C4.80562 7.67702 4.46079 8.02345 4.03379 8.02345ZM7.25 8.02345C6.82461 8.02345 6.47818 7.67702 6.47818 7.25001C6.47818 6.82301 6.82461 6.47658 7.25 6.47658C7.67539 6.47658 8.02183 6.82301 8.02183 7.25001C8.02183 7.67702 7.67539 8.02345 7.25 8.02345ZM10.4662 8.02345C10.0408 8.02345 9.69439 7.67702 9.69439 7.25001C9.69439 6.82301 10.0408 6.47658 10.4662 6.47658C10.8916 6.47658 11.238 6.82301 11.238 7.25001C11.238 7.67702 10.8916 8.02345 10.4662 8.02345Z" fill="#5C48E8"/>
</svg>
