<svg width="17" height="17" viewBox="0 0 17 17" fill="none" xmlns="http://www.w3.org/2000/svg">
<path fill-rule="evenodd" clip-rule="evenodd" d="M8.50008 7.08329C7.71768 7.08329 7.08341 7.71756 7.08341 8.49996C7.08341 9.28236 7.71768 9.91663 8.50008 9.91663C9.28248 9.91663 9.91675 9.28236 9.91675 8.49996C9.91675 7.71756 9.28248 7.08329 8.50008 7.08329ZM5.66675 8.49996C5.66675 6.93515 6.93527 5.66663 8.50008 5.66663C10.0649 5.66663 11.3334 6.93515 11.3334 8.49996C11.3334 10.0648 10.0649 11.3333 8.50008 11.3333C6.93527 11.3333 5.66675 10.0648 5.66675 8.49996Z" fill="black"/>
<path fill-rule="evenodd" clip-rule="evenodd" d="M8.5 1.41667C8.31214 1.41667 8.13197 1.49129 7.99913 1.62413C7.86629 1.75697 7.79167 1.93714 7.79167 2.125V2.24824C7.79021 2.61431 7.68173 2.97197 7.4796 3.27719C7.27747 3.5824 6.99051 3.82185 6.65403 3.96606C6.59414 3.99173 6.53113 4.00895 6.46681 4.01736C6.16107 4.12442 5.83194 4.15082 5.51154 4.09272C5.1425 4.02581 4.80197 3.84988 4.53385 3.58761L4.52827 3.58215L4.4858 3.53962C4.42001 3.47376 4.34161 3.42123 4.25562 3.38559C4.16963 3.34994 4.07746 3.33159 3.98437 3.33159C3.89129 3.33159 3.79912 3.34994 3.71313 3.38559C3.62714 3.42123 3.54901 3.47348 3.48323 3.53934L3.48267 3.5399C3.41681 3.60568 3.36457 3.6838 3.32892 3.76979C3.29327 3.85578 3.27493 3.94796 3.27493 4.04104C3.27493 4.13413 3.29327 4.2263 3.32892 4.31229C3.36457 4.39828 3.41681 4.4764 3.48267 4.54219L3.53098 4.59049C3.79324 4.85861 3.96914 5.19917 4.03606 5.56821C4.10164 5.9299 4.05955 6.30273 3.91528 6.64047C3.78384 6.98511 3.55369 7.28356 3.25341 7.49833C2.94705 7.71745 2.58186 7.83933 2.20531 7.84814L2.18875 7.84833H2.125C1.93714 7.84833 1.75697 7.92296 1.62413 8.0558C1.49129 8.18864 1.41667 8.36881 1.41667 8.55667C1.41667 8.74453 1.49129 8.92469 1.62413 9.05753C1.75697 9.19037 1.93714 9.265 2.125 9.265H2.24824C2.61431 9.26646 2.97197 9.37494 3.27719 9.57706C3.58134 9.77849 3.82018 10.0642 3.96455 10.3991C4.11476 10.7414 4.15941 11.1207 4.09272 11.4885C4.02581 11.8575 3.84988 12.198 3.58761 12.4661L3.58215 12.4717L3.53962 12.5142C3.47376 12.58 3.42123 12.6584 3.38559 12.7444C3.34994 12.8304 3.33159 12.9225 3.33159 13.0156C3.33159 13.1087 3.34994 13.2009 3.38559 13.2869C3.42123 13.3729 3.47348 13.451 3.53934 13.5168L3.5399 13.5173C3.60568 13.5832 3.6838 13.6354 3.76979 13.6711C3.85578 13.7067 3.94796 13.7251 4.04104 13.7251C4.13413 13.7251 4.2263 13.7067 4.31229 13.6711C4.39828 13.6354 4.4764 13.5832 4.54219 13.5173L4.59049 13.469C4.85861 13.2068 5.19917 13.0309 5.56821 12.9639C5.9299 12.8984 6.30272 12.9404 6.64046 13.0847C6.9851 13.2162 7.28356 13.4463 7.49833 13.7466C7.71745 14.0529 7.83933 14.4181 7.84814 14.7947L7.84833 14.8112V14.875C7.84833 15.0629 7.92296 15.243 8.0558 15.3759C8.18864 15.5087 8.36881 15.5833 8.55667 15.5833C8.74453 15.5833 8.92469 15.5087 9.05753 15.3759C9.19037 15.243 9.265 15.0629 9.265 14.875V14.7546L9.26501 14.7518C9.26647 14.3857 9.37494 14.028 9.57706 13.7228C9.77851 13.4186 10.0642 13.1798 10.3992 13.0354C10.7414 12.8852 11.1207 12.8406 11.4885 12.9073C11.8575 12.9742 12.198 13.1501 12.4661 13.4124L12.4717 13.4179L12.5142 13.4604C12.58 13.5262 12.6584 13.5788 12.7444 13.6144C12.8304 13.6501 12.9225 13.6684 13.0156 13.6684C13.1087 13.6684 13.2009 13.6501 13.2869 13.6144C13.3729 13.5788 13.451 13.5265 13.5168 13.4607L13.5173 13.4601C13.5832 13.3943 13.6354 13.3162 13.6711 13.2302C13.7067 13.1442 13.7251 13.052 13.7251 12.959C13.7251 12.8659 13.7067 12.7737 13.6711 12.6877C13.6354 12.6017 13.5832 12.5236 13.5173 12.4578L13.469 12.4095C13.2068 12.1414 13.0309 11.8008 12.9639 11.4318C12.8973 11.064 12.9419 10.6847 13.0921 10.3425C13.2364 10.0075 13.4753 9.72184 13.7795 9.5204C14.0847 9.31827 14.4424 9.2098 14.8084 9.20834L14.8112 9.20833L14.875 9.20833C15.0629 9.20833 15.243 9.13371 15.3759 9.00087C15.5087 8.86803 15.5833 8.68786 15.5833 8.5C15.5833 8.31214 15.5087 8.13197 15.3759 7.99913C15.243 7.86629 15.0629 7.79167 14.875 7.79167H14.7546L14.7518 7.79166C14.3857 7.7902 14.028 7.68173 13.7228 7.4796C13.4176 7.27747 13.1782 6.99051 13.0339 6.65403C13.0083 6.59414 12.991 6.53113 12.9826 6.46681C12.8756 6.16107 12.8492 5.83194 12.9073 5.51154C12.9742 5.1425 13.1501 4.80197 13.4124 4.53385L13.4178 4.52827L13.4604 4.4858C13.5262 4.42002 13.5788 4.34161 13.6144 4.25562C13.6501 4.16963 13.6684 4.07746 13.6684 3.98437C13.6684 3.89129 13.6501 3.79912 13.6144 3.71313C13.5788 3.62714 13.5265 3.54901 13.4607 3.48323L13.4601 3.48267C13.3943 3.41681 13.3162 3.36457 13.2302 3.32892C13.1442 3.29327 13.052 3.27493 12.959 3.27493C12.8659 3.27493 12.7737 3.29327 12.6877 3.32892C12.6017 3.36457 12.5236 3.41681 12.4578 3.48267L12.4095 3.53098C12.1414 3.79324 11.8008 3.96914 11.4318 4.03606C11.064 4.10274 10.6847 4.0581 10.3425 3.90788C10.0075 3.76352 9.72182 3.52467 9.5204 3.22052C9.31827 2.9153 9.2098 2.55765 9.20834 2.19157L9.20833 2.18875V2.125C9.20833 1.93714 9.13371 1.75697 9.00087 1.62413C8.86803 1.49129 8.68786 1.41667 8.5 1.41667ZM13.7417 10.625L14.3897 10.911C14.3525 10.9952 14.3415 11.0885 14.3579 11.179C14.3741 11.2686 14.4165 11.3512 14.4797 11.4167L14.5185 11.4555C14.5186 11.4556 14.5184 11.4554 14.5185 11.4555C14.716 11.6528 14.8729 11.8874 14.9798 12.1452C15.0867 12.4032 15.1417 12.6797 15.1417 12.959C15.1417 13.2382 15.0867 13.5147 14.9798 13.7727C14.8728 14.0307 14.7161 14.265 14.5185 14.4624L14.0179 13.9612L14.5191 14.4618C14.3217 14.6594 14.0873 14.8162 13.8294 14.9231C13.5714 15.03 13.2949 15.0851 13.0156 15.0851C12.7364 15.0851 12.4598 15.03 12.2019 14.9231C11.944 14.8162 11.7098 14.6596 11.5125 14.4621C11.5124 14.462 11.5126 14.4622 11.5125 14.4621L11.4733 14.423C11.4079 14.3598 11.3252 14.3174 11.2357 14.3012C11.1452 14.2848 11.0518 14.2959 10.9677 14.333L10.9607 14.3361C10.8782 14.3715 10.8078 14.4302 10.7582 14.505C10.7088 14.5796 10.6822 14.6669 10.6817 14.7564V14.875C10.6817 15.4386 10.4578 15.9791 10.0593 16.3776C9.66075 16.7761 9.12025 17 8.55667 17C7.99308 17 7.45258 16.7761 7.05406 16.3776C6.65555 15.9791 6.43167 15.4386 6.43167 14.875V14.8214C6.42831 14.7313 6.39856 14.6441 6.34606 14.5707C6.29231 14.4956 6.2172 14.4384 6.1305 14.4065C6.11649 14.4013 6.10265 14.3957 6.089 14.3897C6.00484 14.3525 5.91148 14.3415 5.82096 14.3579C5.73142 14.3741 5.64872 14.4165 5.5833 14.4797L5.54448 14.5185C5.54439 14.5186 5.54457 14.5184 5.54448 14.5185C5.34718 14.716 5.11264 14.8729 4.85479 14.9798C4.59682 15.0867 4.3203 15.1417 4.04104 15.1417C3.76178 15.1417 3.48526 15.0867 3.22729 14.9798C2.96957 14.8729 2.7354 14.7164 2.53816 14.5191C2.34059 14.3217 2.18385 14.0873 2.07691 13.8294C1.96997 13.5714 1.91493 13.2949 1.91493 13.0156C1.91493 12.7364 1.96997 12.4598 2.07691 12.2019C2.18385 11.9439 2.34059 11.7095 2.53816 11.5122L2.57699 11.4734C2.64016 11.4079 2.68255 11.3252 2.69878 11.2357C2.7152 11.1452 2.70412 11.0518 2.66697 10.9677L2.6639 10.9607C2.62853 10.8782 2.56984 10.8078 2.49497 10.7582C2.4204 10.7088 2.33307 10.6822 2.24364 10.6817H2.125C1.56141 10.6817 1.02091 10.4578 0.622398 10.0593C0.223883 9.66075 0 9.12025 0 8.55667C0 7.99308 0.223883 7.45258 0.622398 7.05406C1.02091 6.65555 1.56141 6.43167 2.125 6.43167H2.17858C2.26867 6.42831 2.35586 6.39856 2.42927 6.34606C2.50441 6.29231 2.56165 6.2172 2.59354 6.1305C2.59869 6.11649 2.60428 6.10265 2.61031 6.089C2.64745 6.00484 2.65853 5.91148 2.64212 5.82096C2.62588 5.73142 2.58349 5.64873 2.52032 5.5833L2.48149 5.54448C2.28392 5.34712 2.12718 5.11276 2.02024 4.85479C1.9133 4.59682 1.85826 4.3203 1.85826 4.04104C1.85826 3.76178 1.9133 3.48526 2.02024 3.22729C2.12713 2.96944 2.28377 2.73518 2.48122 2.53788C2.67851 2.34044 2.91278 2.1838 3.17063 2.07691C3.4286 1.96997 3.70512 1.91493 3.98437 1.91493C4.26363 1.91493 4.54015 1.96997 4.79812 2.07691C5.05609 2.18385 5.29046 2.34059 5.48781 2.53816L5.52664 2.57698C5.59206 2.64016 5.67476 2.68255 5.76429 2.69878C5.85481 2.7152 5.94817 2.70412 6.03233 2.66697C6.07769 2.64695 6.12491 2.63181 6.17317 2.6217C6.22256 2.58818 6.2652 2.54521 6.29846 2.49497C6.34785 2.4204 6.37444 2.33307 6.375 2.24364V2.125C6.375 1.56141 6.59888 1.02091 6.9974 0.622398C7.39591 0.223883 7.93641 0 8.5 0C9.06358 0 9.60409 0.223883 10.0026 0.622398C10.4011 1.02091 10.625 1.56141 10.625 2.125V2.18698C10.6256 2.2764 10.6522 2.36374 10.7015 2.43831C10.7511 2.51317 10.8215 2.5719 10.904 2.60728L10.911 2.61027C10.9952 2.64741 11.0885 2.65853 11.179 2.64212C11.2686 2.62588 11.3513 2.58349 11.4167 2.52033L11.4555 2.48149C11.6529 2.28392 11.8872 2.12718 12.1452 2.02024C12.4032 1.9133 12.6797 1.85826 12.959 1.85826C13.2382 1.85826 13.5147 1.9133 13.7727 2.02024C14.0307 2.12718 14.265 2.28392 14.4624 2.48149C14.6597 2.67873 14.8163 2.9129 14.9231 3.17063C15.03 3.4286 15.0851 3.70512 15.0851 3.98437C15.0851 4.26363 15.03 4.54015 14.9231 4.79812C14.8162 5.05597 14.6596 5.29024 14.4621 5.48753C14.462 5.48763 14.4622 5.48744 14.4621 5.48753L14.423 5.52664C14.3598 5.59206 14.3175 5.67476 14.3012 5.76429C14.2848 5.85481 14.2959 5.94817 14.333 6.03233C14.353 6.07769 14.3682 6.1249 14.3783 6.17317C14.4118 6.22256 14.4548 6.26519 14.505 6.29846C14.5796 6.34785 14.6669 6.37444 14.7564 6.375H14.875C15.4386 6.375 15.9791 6.59888 16.3776 6.9974C16.7761 7.39591 17 7.93641 17 8.5C17 9.06359 16.7761 9.60409 16.3776 10.0026C15.9791 10.4011 15.4386 10.625 14.875 10.625H14.813C14.7236 10.6256 14.6363 10.6522 14.5617 10.7015C14.4868 10.7511 14.4281 10.8215 14.3927 10.904L13.7417 10.625Z" fill="black"/>
</svg>
